REGISTER at: http://pinoytorrents.net/
Bubble Gang is a sketch comedy television show in the Philippines. 
It airs every Friday evenings by GMA Network. The show is part of 
the network's GMA KiliTV  block. Currently, it is now the longest-
running gag show in Philippine television. The TV program is known 
for their parodies of TV commercials, politicians and current events.


General
Complete name                    : E:\UPLOADS\BUBLE GANG\Bubble Gang 08062010 tvrip x264\Bubble Gang 08052010 x264.mp4
Format                           : MPEG-4
Format profile                   : Base Media / Version 2
Codec ID                         : mp42
File size                        : 375 MiB
Duration                         : 47mn 4s
Overall bit rate                 : 1 113 Kbps
Encoded date                     : UTC 2010-08-06 19:41:52
Tagged date                      : UTC 2010-08-06 19:52:40
Writing application              : HandBrake 0.9.4 2009112300

Video
ID                               : 1
Format                           : AVC
Format/Info                      : Advanced Video Codec
Format profile                   : Main@L3.0
Format settings, CABAC           : Yes
Format settings, ReFrames        : 2 frames
Codec ID                         : avc1
Codec ID/Info                    : Advanced Video Coding
Duration                         : 47mn 4s
Bit rate mode                    : Variable
Bit rate                         : 986 Kbps
Width                            : 512 pixels
Height                           : 384 pixels
Display aspect ratio             : 4:3
Frame rate mode                  : Variable
Frame rate                       : 29.970 fps
Minimum frame rate               : 14.983 fps
Maximum frame rate               : 29.970 fps
Color space                      : YUV
Chroma subsampling               : 4:2:0
Bit depth                        : 8 bits
Scan type                        : Progressive
Bits/(Pixel*Frame)               : 0.167
Stream size                      : 332 MiB (89%)
Writing library                  : x264 core 79

Encoded date                     : UTC 2010-08-06 19:41:52
Tagged date                      : UTC 2010-08-06 19:52:40
Color primaries                  : BT.601-6 525, BT.1358 525, BT.1700 NTSC, SMPTE 170M
Transfer characteristics         : BT.709-5, BT.1361
Matrix coefficients              : BT.601-6 525, BT.1358 525, BT.1700 NTSC, SMPTE 170M

Audio
ID                               : 2
Format                           : AAC
Format/Info                      : Advanced Audio Codec
Format version                   : Version 4
Format profile                   : LC
Format settings, SBR             : No
Codec ID                         : 40
Duration                         : 47mn 4s
Bit rate mode                    : Variable
Bit rate                         : 122 Kbps
Maximum bit rate                 : 153 Kbps
Channel(s)                       : 2 channels
Channel positions                : Front: L R
Sampling rate                    : 48.0 KHz
Stream size                      : 41.1 MiB (11%)
Encoded date                     : UTC 2010-08-06 19:41:52
Tagged date                      : UTC 2010-08-06 19:52:40



